<svg width="25" height="24" viewBox="0 0 25 24" fill="none" xmlns="http://www.w3.org/2000/svg">
<path d="M6.77661 18.2496C6.59661 18.2496 6.4066 18.1796 6.2666 18.0496C4.2866 16.1896 1.91663 13.0596 1.91663 8.68964C1.91663 5.18964 4.74662 2.34961 8.22662 2.34961C9.91662 2.34961 11.4966 3.00964 12.6666 4.18964C13.8366 3.00964 15.4166 2.34961 17.1066 2.34961C18.3666 2.34961 19.5866 2.72963 20.6366 3.42963C20.9766 3.65963 21.0666 4.1296 20.8366 4.4696C20.6066 4.8096 20.1366 4.89962 19.7966 4.66962C19.0066 4.12962 18.0766 3.83966 17.1166 3.83966C15.5966 3.83966 14.1866 4.54966 13.2766 5.77966C12.9966 6.15966 12.3566 6.15966 12.0766 5.77966C11.1566 4.54966 9.75663 3.83966 8.23663 3.83966C5.58663 3.83966 3.42664 6.00963 3.42664 8.67963C3.42664 12.5196 5.53664 15.2896 7.30664 16.9496C7.60664 17.2296 7.62662 17.7096 7.34662 18.0096C7.17662 18.1696 6.97661 18.2496 6.77661 18.2496Z" fill="#292D32"/>
<path d="M12.6665 21.6498C12.3565 21.6498 12.0565 21.6098 11.8065 21.5198C11.0565 21.2598 10.1665 20.8398 9.30653 20.3298C8.94653 20.1198 8.83653 19.6598 9.04653 19.2998C9.25653 18.9498 9.71649 18.8298 10.0765 19.0398C10.8565 19.4998 11.6465 19.8798 12.2965 20.0998C12.4765 20.1598 12.8665 20.1598 13.0465 20.0998C15.3465 19.3098 21.9265 15.5198 21.9265 8.6798C21.9265 8.1798 21.8465 7.68978 21.7065 7.21978C21.5865 6.81978 21.7965 6.39984 22.1965 6.27984C22.5965 6.15984 23.0165 6.37983 23.1365 6.76983C23.3265 7.38983 23.4265 8.0298 23.4265 8.6798C23.4265 15.5598 17.3565 20.1998 13.5365 21.5098C13.2765 21.6098 12.9765 21.6498 12.6665 21.6498Z" fill="#292D32"/>
<path d="M2.6666 22.7495C2.4766 22.7495 2.28657 22.6795 2.13657 22.5295C1.84657 22.2395 1.84657 21.7595 2.13657 21.4695L22.1366 1.46945C22.4266 1.17945 22.9066 1.17945 23.1966 1.46945C23.4866 1.75945 23.4866 2.23951 23.1966 2.52951L3.19663 22.5295C3.04663 22.6795 2.8566 22.7495 2.6666 22.7495Z" fill="#292D32"/>
</svg>
